/* XPM */
static char *_fb2d8f13a7847da922fb23af0181dd1IA6oXLWXL49Lj5Zy[] = {
/* columns rows colors chars-per-pixel */
"44 44 162 2 ",
"   c #509B66",
".  c #1F0F0B",
"X  c #160C0D",
"o  c #1E100E",
"O  c #0F0F18",
"+  c #110E15",
"@  c #0E101A",
"#  c #141015",
"$  c #191012",
"%  c #111119",
"&  c #1F1A1D",
"*  c #200F0B",
"=  c #22110D",
"-  c #29170E",
";  c #261611",
":  c #281610",
">  c #2C1A12",
",  c #291D1C",
"<  c #301F16",
"1  c #2F221F",
"2  c #332116",
"3  c #3B2417",
"4  c #352218",
"5  c #39281F",
"6  c #1D1F2B",
"7  c #1A1F31",
"8  c #221E24",
"9  c #2B1F22",
"0  c #28242C",
"q  c #3A2922",
"w  c #3A2E2B",
"e  c #342A2E",
"r  c #232737",
"t  c #242837",
"y  c #21273A",
"u  c #24293B",
"i  c #3C3232",
"p  c #3B3339",
"a  c #462C1C",
"s  c #482E1D",
"d  c #50331F",
"f  c #4A3223",
"g  c #44332C",
"h  c #503523",
"j  c #553A26",
"k  c #5B3C26",
"l  c #543A2A",
"z  c #5A3D2A",
"x  c #403635",
"c  c #4E3C36",
"v  c #533D33",
"b  c #503F39",
"n  c #5D402C",
"m  c #544037",
"M  c #55433D",
"N  c #64442D",
"B  c #6A482D",
"V  c #664731",
"C  c #674831",
"Z  c #6A4A32",
"A  c #734F33",
"S  c #735136",
"D  c #755338",
"F  c #282F43",
"G  c #272D41",
"H  c #363747",
"J  c #30384F",
"K  c #3F3D4A",
"L  c #323B54",
"P  c #413B42",
"I  c #403E4A",
"U  c #374058",
"Y  c #3E4863",
"T  c #494249",
"R  c #5A4A44",
"E  c #574A49",
"W  c #594B4B",
"Q  c #564643",
"!  c #434353",
"~  c #464759",
"^  c #454A5B",
"/  c #4D4D5B",
"(  c #4B4853",
")  c #56515C",
"_  c #5B545C",
"`  c #614E45",
"'  c #665349",
"]  c #725C4F",
"[  c #6D5E56",
"{  c #745E50",
"}  c #7A6252",
"|  c #71625A",
" . c #454D64",
".. c #4D4E61",
"X. c #45506E",
"o. c #49526B",
"O. c #4F586C",
"+. c #525465",
"@. c #585663",
"#. c #5E5A67",
"$. c #55576B",
"%. c #5E5C6A",
"&. c #475372",
"*. c #4A5673",
"=. c #4F5C7B",
"-. c #535B74",
";. c #595F75",
":. c #576177",
">. c #57607B",
",. c #5C627B",
"<. c #64626F",
"1. c #626477",
"2. c #6E6A74",
"3. c #62657B",
"4. c #696B7D",
"5. c #767177",
"6. c #787278",
"7. c #806756",
"8. c #816957",
"9. c #856C59",
"0. c #556282",
"q. c #5D6682",
"w. c #5E6987",
"e. c #5D698A",
"r. c #636A83",
"t. c #636D8D",
"y. c #65708F",
"u. c #6E7587",
"i. c #7D7D87",
"p. c #647193",
"a. c #6B7692",
"s. c #66759A",
"d. c #69799E",
"f. c #6B7BA1",
"g. c #857F82",
"h. c #7E8795",
"j. c #77819B",
"k. c #7C8BAC",
"l. c #8B8485",
"z. c #908887",
"x. c #978F8B",
"c. c #9D948E",
"v. c #808897",
"b. c #848D9D",
"n. c #9F9590",
"m. c #9B989A",
"M. c #919094",
"N. c #A09791",
"B. c #848DA1",
"V. c #8892A3",
"C. c #949CAE",
"Z. c #8997B2",
"A. c #9FA6B3",
"S. c #A0A6B2",
"D. c #A7AEB7",
"F. c #ABB0BA",
"G. c #B1B6BC",
"H. c #B3B8BE",
"J. c #9BA8C0",
"K. c #A8B3C5",
"L. c #B3BECC",
"P. c #BAC5D0",
/* pixels */
"                                                                                        ",
"                                                                                        ",
"                                                                                        ",
"            . = . . . . . . = * = = . = = . = . = . = . = = . . . . . * = *             ",
"          - ; : , 9 9 9 , , > : - ; : : : : : : : : : ; - ; , 9 9 9 9 , : - :           ",
"        - > 4 q p I I ! K p q 4 4 4 4 4 4 4 4 4 4 4 4 4 4 q p K I I I p q < < -         ",
"      = : < a b ) ,.e.e.,.) c f s s f a f f f f f f s s f v ) ,.t.e.,.) b a < : =       ",
"      * : 3 j W 2.j.k.B.f.2.` z k z z z z z z z z z z k z ` 2.f.k.k.j.2.R l 3 : .       ",
"      = > a z { g.C.J.J.C.9.| A B V V V V V Z Z V C V N Z ] g.C.A.J.C.l.] z a : o       ",
"      . > s V 7.c.F.L.L.F.x.9.' Z S S S S S S S A S A A S 7.x.F.L.P.F.c.8.V s > .       ",
"      . > s Z 9.n.L.P.P.H.n.9.D S D D D D D D D D D D S D 9.c.H.P.P.K.n.9.Z s > .       ",
"      . > s Z 9.n.H.P.P.H.N.9.D S D D D D D D D D D D S D 9.c.G.P.P.H.n.9.Z s > *       ",
"      . > s Z 9.n.G.P.P.G.c.7.D S S D D D D D D S D S A D 9.c.G.L.P.G.n.9.C s > .       ",
"      * > s C 9.n.G.P.P.G.x.9.D A S D D S D D D D D D A D 9.c.G.P.P.G.n.9.Z s > .       ",
"      . > s Z 9.n.G.P.L.G.c.7.D A D D D D D D D D D S S S 9.c.F.P.P.G.n.9.Z s > .       ",
"      . > s Z 9.n.G.P.P.G.n.7.D A S S D D S D D S D S S D 9.c.G.P.P.G.N.9.Z s > .       ",
"      * > s Z 9.N.H.P.P.H.c.9.D S D D D D D D D D D D A D 9.N.H.P.P.H.N.9.Z s > *       ",
"      * < s C 9.n.G.P.P.G.c.9.S A D D D D D D D D D S A D 9.c.H.P.P.G.c.9.Z s > *       ",
"      * > a N } z.S.K.K.S.z.} Z B Z A B Z Z Z Z Z Z Z A Z } z.S.K.K.S.z.} N a > =       ",
"      * > < k ' 6.B.Z.Z.b.5.' z k k k k k k n n n k n d z S 5.b.Z.Z.B.6.' k 3 - .       ",
"      = : 4 h R <.a.f.f.a.<.R z j z n l n l v l l n l l l R <.a.f.k.y.<.R f 4 - =       ",
"      * > q T _ 3.p.s.d.p.,._ W ' [ | | | | | | | | [ ' W _ ,.p.s.s.t.3._ M w , =       ",
"      * , P $.4.y.s.s.s.p.t.3.4.i.M.m.m.m.m.m.m.m.m.M.i.4.3.t.p.s.d.p.p.r.$.p , .       ",
"      * , I ;.y.p.p.p.p.p.t.t.a.B.A.F.F.D.D.D.D.F.F.A.B.a.t.t.p.p.p.p.p.t.:.K 1 .       ",
"      * , p / -.:.>.0.0.0.=.O.;.u.b.V.b.h.h.h.h.B.V.b.u.:.$.:.0.0.0.0.>.-./ p , *       ",
"      * ; 1 i P ^ o.*.*.o.^ T x / :.:.O. .^ ^  .O.:.:./ x P ~ o.&.&.o.~ P i 1 ; =       ",
"      = = > < w U ..&.&. .K w w K ^ Y L F u y G L Y  .P w w K  .&.&. .! w 1 - = =       ",
"    $ = = > > w ! =.0.0.-.( g g T O.X.L y 7 7 y L &.o.T g g ( =.0.0.-.! w 2 - = o $     ",
"    $ $ = - 1 i +.w.p.p.w.@.m c ) q.>.Y F y y F Y >.,._ c m @.w.p.s.w.+.i , - ; o $     ",
"  % $ o - - 2 x +.y.f.d.y.#.m m _ r.e.*.U L J U *.e.y._ m m #.y.f.d.y.+.x 2 - = o $ %   ",
"  % $ o = - 2 i +.y.d.d.p.#.M m _ y.s.e.>.*.*.=.e.s.y._ m M #.y.d.d.p.+.x 2 - - = + %   ",
"  % $ o = - 2 x +.y.d.d.y.#.M m _ w.p.p.e.y.e.e.p.p.r._ m M #.y.d.d.y.+.i 2 - = . $ %   ",
"  % $ o - - 1 x +.y.d.d.t.#.M v E #.1.1.1.1.1.1.1.1.#.W v M #.t.f.d.t.+.i 4 > - o $ %   ",
"  % $ o = - 2 i +.t.d.d.y.#.M l v Q W W W W E E W W Q v j M %.t.f.d.t.+.i 2 - = o $ %   ",
"  % $ o = - , i +.t.d.d.y.%.M f h j j j l l l j h l l f j M %.t.f.f.t.+.i 1 - = $ $ O   ",
"@ @ % $ o - > i +.p.f.f.p.%.Q j d h f f f h d f h d h h j M %.p.f.f.t.+.i > = ; $ % O @ ",
"@ @ % % $ . - e ..t.d.d.y.%.M j h h h j j j f j h h h h j M %.p.f.f.t...e ; . # % % @ @ ",
"        + X o 0 ~ w.p.p.w.@.b f s f f f f f f f f f f s f b @.w.p.p.q.~ 0 o X +         ",
"        O + X 8 H  .*.*.o.U i q 5 q 5 q q q q q q 4 q 5 q i !  .&.*.X.H 8 + X @         ",
"        @ O % & 6 t u t t 0 8 & & & & & & & & & , 6 & & & 8 0 y y y y 6 & O + @         ",
"                                                                                        ",
"                                                                                        ",
"                    @ @ @ @ @ @ @ @ @ @ @ @ @ @ @ @ @ @ @ @ @ @ @ @                     ",
"                    @ @ @ @ @ @ @ @ @ @ @ @ @ @ @ @ @ @ @ @ @ @ @ @                     "
};
