/* XPM */
static char *_7c5fc6ab95b41cc9520783bb65ccd53SOjxm37q5fRVyMBq[] = {
/* columns rows colors chars-per-pixel */
"44 44 80 1 ",
"  c #509B66",
". c #010000",
"X c #0A0604",
"o c #0C0805",
"O c #100806",
"+ c #1A0A06",
"@ c #150D09",
"# c #1D0E0B",
"$ c #1C130E",
"% c #23140E",
"& c #271610",
"* c #281711",
"= c #271A12",
"- c #2B1C14",
"; c #322117",
": c #352419",
"> c #39261B",
", c #3D291D",
"< c #2F272D",
"1 c #352A2D",
"2 c #422C1F",
"3 c #4C341F",
"4 c #452E20",
"5 c #473021",
"6 c #4D3424",
"7 c #44332D",
"8 c #503625",
"9 c #533826",
"0 c #5A3E24",
"q c #563C2A",
"w c #593E2B",
"e c #5C412C",
"r c #634525",
"t c #63452F",
"y c #69482B",
"u c #704E2D",
"i c #75512E",
"p c #7B552B",
"a c #7F592D",
"s c #664730",
"d c #664831",
"f c #6B4C33",
"g c #6D5336",
"h c #725636",
"j c #7F5C36",
"k c #755338",
"l c #7A573B",
"z c #7D593C",
"x c #7B613E",
"c c #484048",
"v c #4B4B5C",
"b c #4C5065",
"n c #845C2E",
"m c #895F2F",
"M c #81633D",
"N c #936632",
"B c #996B33",
"V c #A5753A",
"C c #90774B",
"Z c #A77B41",
"A c #B6803C",
"S c #B8813D",
"D c #B98B4A",
"F c #AB8C53",
"G c #B1975D",
"H c #BD9A59",
"J c #C88D41",
"K c #D39544",
"L c #D69F4F",
"P c #E8A74D",
"I c #E1AB56",
"U c #E9AB52",
"Y c #EFB155",
"T c #D6B76C",
"R c #E0B564",
"E c #E6BD69",
"W c #F2BE63",
"Q c #5C6582",
"! c #647192",
"~ c #6E7FA5",
/* pixels */
"~!b<#+################################+#<b!~",
"!Qv1*%**&&****&%&&*&&&&&***&*****&**&&%&1vb!",
"bvc72222,2444222224422244222224222,422227cbb",
"<17wetttsswsttttetttettsttettttttttsttett711",
"+&2tklkkkkkkkkkkkkkkkkkkkkkkkkkkkkkkkkkks4&#",
"+%2tlzllllllllllllllllzlllllkllllllllzzlt4%+",
"#*2ekzkkkkkkkkkkkkkkkkkkkklkkkkkkkkkkklkt4&#",
"#*2wffssddddddddssssddddssdsssssddsssfffw>&#",
"#*>8ww96666686686666686688888686368689ww8:*#",
"#*;3854>>>>1>>>>,>,>>>1,>>>>>>>>21>>>,595:&#",
"#&:395>;:>2>>>;::>>,>>,>12::::>>>>>;;>586>&#",
"#&,0t8>>24444>::,4552344322>::,45442:>9t92&#",
"#&2tyw,>268884>>258866866952>>468864:29ft2*#",
"#*2sfw,>26988422568899898962:>469984>2wft2*#",
"#*4sfw>>28888666688868698862>>468864>2wfs2*#",
"#*2sfw,>28888888888896969954,,468664>>wft2*#",
"#*4tfq,>2688888889698888886544688862>2qft2=#",
"#*2tfq,>2888888896968886888666688862>,qft2*#",
"#*2tfq,>2888888896698888888888666962>,qfs2=#",
"#*2tfq2>2688886869698688886888665662>,wft2*#",
"#*2sfq2>288888889688968888888899q982>2qft2*#",
"#*2tfq>>288888886969888888868wgxMnie21qft4*#",
"#*4tfq2>268886889686888868868fCGHDVp3,9ft2*#",
"#*4tfq>>288888886988888688858kFTEIJm029fs2*#",
"#*2tfq,>288888888888888888666kFRWYKB028fs2*#",
"#*4tfq,>268888888688888888858fZLUPKB0,0ft2*#",
"#*2tfq,>288888888888888686869sNSJJVm3,8ft4*#",
"#*2sfw,>2888888888888688888680unmmmr3,9ft2*#",
"#&2sfq1>2688888888888888888686333332>,qft2*#",
"#&2tfq2>46886665668868888889862>:::;:,qfs2*#",
"#&,sf02:468885425688888869889642221::,qft2*#",
"#*4tf02:488964>>46888888866966968834>,qfs4*#",
"#*4sfq,>288864>:26996869688888898882:,qfs2*#",
"#*1sfq,>269964>>26698896888888888982,,qft4*#",
"#*2tfw,>288964>>25698696888686888862:,qdt2=#",
"#*2yue1>280984>>46999999998655689985,,egd2*#",
"#*2yfw,,469984>>469969999864,1369982,,egs2*#",
"#&>qw6:;>4454>;;:2444444444>;;>2552>;:6ew,*#",
"%%-::-$$$====$$$$=======**=$#$%====$$$-::*%#",
"%##+OoXXXooooXXXXooooXooooXXXXXXoooXXXoo@#%%",
"#+oX....................................Xo+#",
"oXX.                                    .Xoo",
".X.                                      .X.",
"...                                      ..."
};
