/* XPM */
static char *result[] = {
/* columns rows colors chars-per-pixel */
"44 44 201 2 ",
"   c #509B66",
".  c #0A0604",
"X  c #0D0905",
"o  c #04050A",
"O  c #05080F",
"+  c #0E0D0B",
"@  c #120B06",
"#  c #130D09",
"$  c #190F09",
"%  c #16110D",
"&  c #1C120C",
"*  c #040812",
"=  c #0B0C14",
"-  c #0D0F19",
";  c #509B66",
":  c #151313",
">  c #1A1615",
",  c #1B1819",
"<  c #22150C",
"1  c #26190E",
"2  c #28180E",
"3  c #261C15",
"4  c #2C1D12",
"5  c #221B1A",
"6  c #2D1E18",
"7  c #311E11",
"8  c #352214",
"9  c #3A2515",
"0  c #35231C",
"q  c #3C291B",
"w  c #3B261A",
"e  c #071123",
"r  c #0C1D3E",
"t  c #342B27",
"y  c #3D2B22",
"u  c #352C2A",
"i  c #38322A",
"p  c #202C3D",
"a  c #422917",
"s  c #442B1A",
"d  c #492E1C",
"f  c #402717",
"g  c #4C311D",
"h  c #47301D",
"j  c #50341E",
"k  c #402F20",
"l  c #4E3322",
"z  c #46342B",
"x  c #533621",
"c  c #563923",
"v  c #593B24",
"b  c #573D2A",
"n  c #5C3F2B",
"m  c #4C3C34",
"M  c #423A30",
"N  c #563F30",
"B  c #603F2A",
"V  c #5C422D",
"C  c #4B4338",
"Z  c #4D4135",
"A  c #534236",
"S  c #52453C",
"D  c #544A3E",
"F  c #5C4637",
"G  c #65442C",
"H  c #6A472F",
"J  c #694732",
"K  c #6E4B34",
"L  c #654B3B",
"P  c #674836",
"I  c #714D36",
"U  c #734E39",
"Y  c #6A523D",
"T  c #75533B",
"R  c #7B553D",
"E  c #77583A",
"W  c #0E1F40",
"Q  c #192945",
"!  c #142A55",
"~  c #17366C",
"^  c #203761",
"/  c #2C436B",
"(  c #2C486E",
")  c #334E7A",
"_  c #3B547E",
"`  c #395077",
"'  c #44495B",
"]  c #5A4F4F",
"[  c #65544E",
"{  c #685748",
"}  c #7D5E47",
"|  c #6E5E56",
" . c #654F40",
".. c #696053",
"X. c #756452",
"o. c #7D6454",
"O. c #7F604A",
"+. c #425373",
"@. c #505D79",
"#. c #5F6371",
"$. c #76716A",
"%. c #6C6772",
"&. c #736C74",
"*. c #845D45",
"=. c #885F46",
"-. c #825E48",
";. c #8B6247",
":. c #88644D",
">. c #91664B",
",. c #94694E",
"<. c #866A50",
"1. c #8E6C52",
"2. c #956B51",
"3. c #9C6E52",
"4. c #84725C",
"5. c #8B735A",
"6. c #9E7155",
"7. c #98745B",
"8. c #967257",
"9. c #A27457",
"0. c #A5765A",
"q. c #AC7B5D",
"w. c #A07A5F",
"e. c #B17E5F",
"r. c #856F6A",
"t. c #857763",
"y. c #887762",
"u. c #957A62",
"i. c #86787C",
"p. c #A47C64",
"a. c #B27F60",
"s. c #9C866F",
"d. c #958169",
"f. c #88817B",
"g. c #AD896D",
"h. c #AB8467",
"j. c #B48B6C",
"k. c #B48162",
"l. c #A48E74",
"z. c #B58E71",
"x. c #B88F70",
"c. c #A9957C",
"v. c #A79379",
"b. c #B69B7E",
"n. c #B8997B",
"m. c #B69476",
"M. c #C09A7B",
"N. c #1F478C",
"B. c #204A8D",
"V. c #375686",
"C. c #23519B",
"Z. c #2F5C9F",
"A. c #37609B",
"S. c #255BAB",
"D. c #2658A7",
"F. c #265EB2",
"G. c #2C61AE",
"H. c #3364AB",
"J. c #2B63B2",
"K. c #2863B8",
"L. c #3167B4",
"P. c #356BB5",
"I. c #3B71BB",
"U. c #516D9E",
"Y. c #777B91",
"T. c #6C7289",
"R. c #4D71A5",
"E. c #587EB5",
"W. c #5578AF",
"Q. c #8A7B81",
"!. c #7D8084",
"~. c #7D839B",
"^. c #7A889C",
"/. c #6B85AB",
"(. c #6587B9",
"). c #7C87A3",
"_. c #81879F",
"`. c #838086",
"'. c #AF9C82",
"]. c #B29E83",
"[. c #B49F85",
"{. c #A19C95",
"}. c #B5A186",
"|. c #BEA385",
" X c #BCA589",
".X c #BEA98D",
"XX c #BAA890",
"oX c #8992A9",
"OX c #959AAB",
"+X c #9397A8",
"@X c #929CB1",
"#X c #9AA4B8",
"$X c #C2A284",
"%X c #C0A588",
"&X c #C2AB8D",
"*X c #C3AE91",
"=X c #CAAF90",
"-X c #C6B194",
";X c #CAB293",
":X c #D7BE9B",
">X c #509B66",
/* pixels */
">X>X>X>X>X>X>X                          >X>X>X>X            >X>X>X>X>X>X>X>X>X>X>X>X>X>X",
">X>X>X>X>X>X>X    . X X # # @ # X X X . . >X>XX # X X         >X>X>X>X>X>X>X>X>X>X>X>X>X",
">X>X>X>X>X>X>X  . X 1 8 9 q q q 8 8 2 < @ . . < 8 8 4 %                 >X>X>X>X>X>X>X>X",
">X>X>X>X>X>X>X    # 4 a g c v j j g s 8 < # % 4 s l s 4 % X X X X X . . . . >X>X>X>X>X>X",
">X>X>X>X>X>X>X    . X % 4 w g c v c j s 9 4 7 q g c j d 9 9 9 w 8 8 4 2 < @ .   >X>X>X>X",
">X>X>X>X>X>X>X. . . . X % 8 h c v v c j g d a g x c c c c c c c c j g a 2 % .     >X>X>X",
">X>X>X>X>X  @ & 2 2 4 8 9 d g v v v c c c j x j c c v v v v v v v c c g 9 < .     >X>X>X",
">X>X>X  . @ & 7 9 h g x c c c c v c c c c x c c c c c c v c c v c v c x a 1 X .   >X>X>X",
"    . # < 2 8 a g c c v v v v c v c c j j j g j c c v v c c v c c v v c d 9 2 < # .     ",
"    X < 8 a d j j v j v c c c c c c c j d s s d g c c c c c c c c v v c g g a 8 < X     ",
"    @ 2 a j v j c v v v c x j d d d s s f 9 9 a s d g l j v c V v c v c c c g q 2 @     ",
"    # 4 g j V v c v v v c d d a a d d s d s s d d d g x V j V j c c c c v v c d 4 #     ",
"    # 8 d c V j c v v v j h f f j B K U U U I I I I R R E I G j g g j c v v c h 4 #     ",
"    # 4 h c v v c c v j j g d g G *.3.9.9.9.9.9.9.9.9.9.9.>.T v d d j c v v c h 4 #     ",
"    # 4 h v v v c c g g j v J T =.3.q.a.k.e.e.e.e.e.e.k.k.9.>.R J n c g x v c g 7 #     ",
"    # 7 h c v v j j h h c I ;.6.9.q.q.q.q.q.q.q.q.e.q.q.q.q.0.9.,.R n g d g x h 7 $     ",
"    # 2 s j c c c v B J J K T *.2.p.g.z.z.j.z.x.z.j.p.1.*.=.2.9.9.*.v s 7 9 8 8 < @     ",
"    @ < 9 s g j v K *.>.=.P l z  .u.].%X&X X X&X%X].y. .k l U 2.6.;.G a 7 < @ X . >X>X>X",
"    X $ < 7 9 h v R 8.h.7.L 0 6 A y.[.-X-X-X-X-X-X}.y.A 6 6 L 8.h.7.<.Y z 3 +     >X>X>X",
">X>X>X  X # 2 q v } u.m.l.{ y 0 A y.}.=X-X*X.X-X-X}.y.A 6 k { s.|.$X[.l.o.M :     >X>X>X",
">X>X>X    X 4 l I 8.l.|.'.t. .D X.s. X*X-X*X*X-X-X}.s.|  .[ r.c.&X;X;X[.5.Z >     >X>X>X",
">X>X>X    # q P 2.h.n. X X[.v.l.v.[.XX*X*X.X*X*X&X.X].'.l.l.].|.&X%XM.h.:.z %     >X>X>X",
">X>X>X>X  % q L -.7.g.n.%X&X*X=X*X*XXX*X*X.X*X.X*X*X*X*X=X&X&X%Xb.g.7.-.P t $   >X>X>X>X",
">X>X>X>X>X>X> 3 0 A } h.x.|.&X*X-X*X-X*X*X*X*X*X*X*X*X*X=X&X%Xx.p.O.b 0 3 $ >X>X>X>X>X>X",
">X>X>X>X>X>X>X  . 4 b *.w.j.n.|.%X|.|.%X|.|.|. X|.|.|.%X|.n.j.7.*.b 4 .   >X>X>X>X>X>X>X",
">X>X>X>X>X>X>X    $ 0 c T >.p.j.x.x.j.j.j.j.j.j.j.j.j.x.j.p.>.T c 8 $     >X>X>X>X>X>X>X",
">X>X>X>X>X>X>X  . X < 9 l K ;.6.0.p.p.p.p.p.p.p.p.p.p.9.9.=.I x 9 < #     >X>X>X>X>X>X>X",
">X>X>X>X>X>X>X    X < 8 d v J R -.r.i.Q.Q.Q.Q.Q.Q.i.r.o.T J v d 8 < X     >X>X>X>X>X>X>X",
">X>X>X>X>X>X>X    # 1 9 s j c N [ %.Y.Y.~.~.~.~._._.&.[ V c d d 9 2 @ .   >X>X>X>X>X>X>X",
">X>X>X>X>X>X>X    X 2 a d j j n [ %.Y._.oX+XOXOXOX+X&.| V x j d 9 1 @     >X>X>X>X>X>X>X",
">X>X>X>X>X>X>X+ : 3 h v B v v N ] %.Y.).oXOX#X#X#X+X!.| J j v B V y 6 : + >X>X>X>X>X>X>X",
">X>X>X>X>X: i D { X.4.5.1.E B N ] @.U.E.E.(.(.(.(./.T.] V G E <.5.4.X.{ D i > >X>X>X>X>X",
">X>X>X>X  > C t.'..X*X Xv.5.Y S ' V.H.L.L.L.K.J.P.H.V.' S Y 5.v. X&X.X'.t.C >   >X>X>X>X",
">X>X>X    > S d..X:X:X-X].f.#.+.V.Z.J.F.F.S.D.F.F.J.D.V.+.#.i.}.;X:X:X-Xd.D >     >X>X>X",
">X>X>X    > C t.].-X-XXX{.^.R.H.F.H.F.D.C.N.N.D.D.J.J.G.L.R.^.{.XX-X&X'.t.C >     >X>X>X",
">X>X>X>Xo : t D ..$.!.^./.(.I.K.K.F.D.B.~ ! ! ~ B.D.F.K.K.I.E.).^.!.$...D t :   >X>X>X>X",
">X>X>X>X>X= + # , p ( A.L.P.L.G.S.C.B.~ W e e W ~ N.C.D.H.L.P.P.A.( Q , + + = >X>X>X>X>X",
">X>X>X>X>X=       e Q ^ ) _ _ ` ( ^ ! r e O O e r ! ^ ( ` _ V.) / Q ;       = >X>X>X>X>X",
">X>X>X>X>X= o   . + 3 t z m Z M u , - * O = = O O = , u m m m z t 5 +     o = >X>X>X>X>X",
"; ; ; ; ; = O o o # < 2 9 s d s 7 $     o = = O   . $ 4 a s a 9 7 < # . o O = ; ; ; ; ; ",
"; ; ; ; ; - = = = = : , 5 5 5 5 , : = = = - - = = = = > 5 5 5 5 , : = = = = ; ; ; ; ; ; ",
">X>X>X>X>X>X; >X>X>X>X>X>X>X>X>X>X>X>X>X>X>X>X>X>X>X>X>X>X>X>X>X>X>X>X>X>X; >X>X>X>X>X>X",
">X>X>X>X>X>X; ; >X>X>X>X>X>X>X>X>X>X>X>X>X; ; >X>X>X>X>X>X>X>X>X>X>X>X>X; ; >X>X>X>X>X>X",
">X>X>X>X>X>X; ; ; ; ; ; ; ; ; ; ; ; ; ; ; ; ; ; ; ; ; ; ; ; ; ; ; ; ; ; ; ; >X>X>X>X>X>X"
};
