/* XPM */
static char *abc8eee7b6314010f1cbc4583400ef78IW70dGoFq8nM32Ad[] = {
/* columns rows colors chars-per-pixel */
"44 44 142 2 ",
"   c None",
".  c #000000",
"X  c #050609",
"o  c #07080B",
"O  c #090A0E",
"+  c #0D0F13",
"@  c #0F1115",
"#  c #0F1118",
"$  c #121316",
"%  c #11141C",
"&  c #15181F",
"*  c #141722",
"=  c #151822",
"-  c #191D25",
";  c #1B1F29",
":  c #1D222D",
">  c #1F2434",
",  c #222633",
"<  c #232937",
"1  c #22273A",
"2  c #242A3B",
"3  c #282E3C",
"4  c #262D41",
"5  c #282F43",
"6  c #2C3245",
"7  c #2D3449",
"8  c #353A46",
"9  c #313748",
"0  c #343B4D",
"q  c #343C52",
"w  c #383F52",
"e  c #3E444F",
"r  c #394154",
"t  c #374058",
"y  c #3A435B",
"u  c #3F485F",
"i  c #3D4661",
"p  c #3F4863",
"a  c #404654",
"s  c #454B57",
"d  c #434A5C",
"f  c #4A4F5A",
"g  c #4B515C",
"h  c #424B65",
"j  c #444E69",
"k  c #46516C",
"l  c #4A546D",
"z  c #4B5673",
"x  c #4E5975",
"c  c #4F5A78",
"v  c #515B76",
"b  c #525E7B",
"n  c #55607C",
"m  c #58627C",
"M  c #60697F",
"N  c #566382",
"B  c #596584",
"V  c #5D6A8B",
"C  c #626B83",
"Z  c #616D8D",
"A  c #66728F",
"S  c #69748E",
"D  c #70798F",
"F  c #616F91",
"G  c #657395",
"H  c #6A7694",
"J  c #6E7A94",
"K  c #677598",
"L  c #68769A",
"P  c #6B799C",
"I  c #727D96",
"U  c #717E9E",
"Y  c #6D7CA0",
"T  c #768096",
"R  c #74809D",
"E  c #7B859A",
"W  c #7A859E",
"Q  c #79849B",
"!  c #7E889F",
"~  c #7280A0",
"^  c #7380A0",
"/  c #7481A0",
"(  c #7482A0",
")  c #7582A0",
"_  c #7482A1",
"`  c #7683A2",
"'  c #7A86A1",
"]  c #7986A3",
"[  c #7A87A4",
"{  c #7A87A5",
"}  c #7986A6",
"|  c #7A87A4",
" . c #7B88A5",
".. c #7C88A5",
"X. c #7D89A5",
"o. c #7D8AA6",
"O. c #7E8BA6",
"+. c #7C89A5",
"@. c #7E8BA9",
"#. c #7E8BAA",
"$. c #7F8CA8",
"%. c #818A9F",
"&. c #818B9F",
"*. c #808A9E",
"=. c #818BA0",
"-. c #838DA1",
";. c #838EA5",
":. c #808CA7",
">. c #838EA6",
",. c #828DA4",
"<. c #808CA8",
"1. c #808DA8",
"2. c #818EA8",
"3. c #838FAB",
"4. c #828FA9",
"5. c #8591A7",
"6. c #8792A9",
"7. c #8692AB",
"8. c #8793AE",
"9. c #8591AB",
"0. c #8893AA",
"q. c #8893AC",
"w. c #8894AC",
"e. c #8994AC",
"r. c #8994AD",
"t. c #8995AD",
"y. c #8B96AE",
"u. c #8B96AF",
"i. c #8A96AD",
"p. c #8C98AF",
"a. c #8D98AF",
"s. c #8E99AF",
"d. c #8D99AF",
"f. c #8A96B0",
"g. c #8E99B0",
"h. c #8E99B1",
"j. c #8F9AB0",
"k. c #8E99B1",
"l. c #909BB1",
"z. c #909BB2",
"x. c #939EB6",
"c. c #919CB3",
/* pixels */
"          . . . . . . . . . . . . . . . . . . . . . . . . . . . . . . . . . .           ",
"        @ - ; ; ; ; ; ; ; ; ; ; ; : - = # * - ; : ; : - ; - - : ; ; ; ; ; ; - $         ",
"      . : d b n b b b b b b b b b b v j w u l b b b b b b b b b b b b b n b d : .       ",
"    & , w N P Y P P P P P P P P P P K V b N G P P P P P P P P P L P P P Y P N w , =     ",
". + 7 v Z G K K K K P K K P K K K P K G G G G K K P K K K K P K K L K P L K G V v 7 + . ",
". + 0 V Y P K K K K K K K K K K K K K K K K K K K K K K K K K K K K K K K K P Y Z 0 @ . ",
". + 0 V P P K K K K K K K K K K K K K K K K K K K K K K K K K K K K K K K K L Y V 0 @ . ",
". + 0 V P K K K K K K K K K K K K K K K K K K K K K K K K K K K K K K K K K L L V 0 O . ",
". + 0 Z Y K K K K K K K K K K K K K K K K K K K K K K K K K K K K K K K K K P P V 0 + . ",
". $ r I { Y K G G K K K K K K K K K K K K K K K K K K K K K K K K K K K K K K P V 0 + . ",
". $ s E 9.U K K K K K K K K K K K K K K K K G G K K K K K K K K K K K K K K K P V 9 + . ",
". $ 8 M I ' :.O.O.` P K K K K K K K K P P G V B V K P K K K K K K K K K K K P Y Z 0 @ . ",
". O : u B W y.g.r.O.U G G K K K K G G F Z n k j b F G K K K K K K K K K K K K K B 0 + . ",
". X * 6 k S { <.{ U P K K K K K G B x u 9 2 : < q z B G K K K K K K K K L K V c y : o . ",
". X * 5 h B K K K K K K K K K K V N p 2 O . . O 2 h b F K P K K K K K K P K B h 6 = X . ",
". O 2 j N Z K K K G K K K K K K G V x 6 O . . o 6 x V G K K K K K K K K K K Z B h 2 O . ",
". + w Z Y P K K K K K K K K K K P P V q @ . . + w Z P P K K K K K K K K K K L Y V 0 + . ",
". $ s R #.U K K K K K K K K K K K Y V 0 + . . $ s T #.Y K K K K K K K K K K K Y V 0 + . ",
". $ f =.9.U K G K K K K K K K K P P V q + . . $ g -.r._ K G K K K K K K K K P P V 0 + . ",
". $ f =.8._ K K K K K K K K K K K P V q @ . . $ g -.9._ K G K K K K K K K K L P V 0 + . ",
". $ g &.f. .P K K K K K K K K K P P V 0 @ . . $ g =.f.{ P P K K L G L L K K K P V 0 @ . ",
". $ g -.x.y.>.R K K K G K K G K K P V r @ . . $ g -.x.y.2.U K G K G L G K K L Y V 0 @ . ",
". $ e D t.j.g.$._ U P _ R R P P K G b 7 O . . $ a D 0.s.y.<.` U U U P L L L G G n 7 O . ",
". O 3 l S 2.g.g.t.w.w.t.t.6.+.P F N h 2 O . . O 3 l S ;.l.l.r.r.r.2.U L L L F N j 2 O . ",
". o ; q k C S T R E Q Q Q R H Z B b j 3 O . . O 2 j B I Q W E E R I S B B b z j q ; o . ",
". X * 2 7 0 r j z z x x z x z l c V n 0 + . . + 0 N V b z z z v x z z k p q 7 7 2 = X . ",
". X % > 5 q u j z c z z j p u p z V V r + . . + w C V z i i h h z z c z j u q 6 > # X . ",
". X # 2 y v V Z F F F V x h p h z Z V q + . . + w V V z p p j x B G F F F V c t 1 * X . ",
". o > t c F P P L L L F B c c c N B c 7 + . . O 6 c N N c c c B G K K P P P V c t > o . ",
". + 9 N G G L G K K L K K G G F V c p < O . . O 2 p b V G G G G K K K K K K K K N 9 + . ",
". + q V Y P G L K K K K K L L L G V l 3 O X # , q z V F K P K K K K K K K K P P Z 0 + . ",
". + 0 V L P L G K K K K K K K K K L B 0 @ # 6 h N F G K K K K K K K K K K K K P V 0 + . ",
". + 0 V P K K K K K K K K K K K L Y Z y > > p N F K K K K K K K K K K K K K K P V 0 + . ",
". + 0 V P P K K K K K K K K K K L L Z j 7 q c G P K P K K K K K K K K K K K P P V 0 + . ",
". @ 9 V P K K K K K K K K K K K L P F k 7 q N P ` { ` P K K K K K K K K K K P P V 0 + . ",
". @ 0 Z P K K K K K K K K K K K G P F j 7 q c P $.t.>.U K G K K K K K K K K K P V 0 + . ",
". $ a I  .P K K K K K K K K K K K L F j 7 q c Y 2.t.9.P K K K K K K K K K K K P V 0 + . ",
". $ g &.f.' P K K K K K K K K K K L F j 7 q c G O.t.6.R P K K K K K K K K K K P V 0 + . ",
". $ g &.c.9.#.U K G K K K K K K K Y F k 7 7 p N R y.j.6.O.U K G G K K G K K K P V 0 + . ",
". $ s W c.c.t. .U P P P P K K K K G V j 7 5 q j C +.y.s.t.+.U P P P U P P K P P V 0 + . ",
". $ r K 9.l.l.y.6.6.4.O.U K K K F B z q 5 4 4 q h m I 5.c.f.6.4.4.6.6.4.{ P Y Y V 0 + . ",
". O 6 c H I W *.+.>.0.:.U Z F F N z i q 7 4 4 4 9 t v J =.>.=.>.9.0.;.*.J V V V v 6 + . ",
". o ; 0 t u h l m Z J P V z z z j q 7 q q q 5 1 4 6 t l m m m Z P I Z b k y q q 0 ; O . ",
". X % , 1 1 2 q p v Z V c h p h q 7 4 q p y 7 4 1 2 7 t p p h v F V c p q 4 2 1 , % X . "
};
